<svg width="19" height="6" viewBox="0 0 19 6" fill="none" xmlns="http://www.w3.org/2000/svg">
<path d="M0.811523 5.00001V0.636369H2.33709C2.64107 0.636369 2.89178 0.688926 3.08922 0.79404C3.28667 0.897733 3.43368 1.03765 3.53027 1.21378C3.62686 1.3885 3.67516 1.58239 3.67516 1.79546C3.67516 1.98296 3.64178 2.13779 3.57502 2.25995C3.50968 2.38211 3.42303 2.4787 3.31507 2.54972C3.20854 2.62074 3.09277 2.6733 2.96777 2.70739V2.75001C3.1013 2.75853 3.23553 2.8054 3.37047 2.89063C3.50542 2.97586 3.61834 3.09802 3.70925 3.25711C3.80016 3.4162 3.84561 3.6108 3.84561 3.84091C3.84561 4.05966 3.7959 4.2564 3.69647 4.43111C3.59704 4.60583 3.44007 4.74432 3.22559 4.8466C3.0111 4.94887 2.73198 5.00001 2.38823 5.00001H0.811523ZM1.33993 4.53126H2.38823C2.7334 4.53126 2.97843 4.46449 3.12331 4.33097C3.26962 4.19603 3.34277 4.03268 3.34277 3.84091C3.34277 3.69319 3.30513 3.55682 3.22985 3.43182C3.15456 3.3054 3.04732 3.20455 2.90811 3.12927C2.76891 3.05256 2.60414 3.01421 2.4138 3.01421H1.33993V4.53126ZM1.33993 2.55398H2.32005C2.47914 2.55398 2.6226 2.52273 2.75044 2.46023C2.87971 2.39773 2.98198 2.30966 3.05726 2.19603C3.13397 2.08239 3.17232 1.94887 3.17232 1.79546C3.17232 1.6037 3.10556 1.44106 2.97203 1.30753C2.83851 1.17259 2.62686 1.10512 2.33709 1.10512H1.33993V2.55398Z" fill="black"/>
<path d="M6.51216 3.1591C6.51216 2.62216 6.58177 2.12856 6.72097 1.67827C6.86159 1.22657 7.06188 0.811085 7.32182 0.431824H7.765C7.66273 0.572449 7.56685 0.745744 7.47736 0.95171C7.38929 1.15626 7.31188 1.3814 7.24512 1.62714C7.17836 1.87145 7.1258 2.1243 7.08745 2.38566C7.05051 2.64702 7.03205 2.90484 7.03205 3.1591C7.03205 3.49716 7.06472 3.8402 7.13006 4.18822C7.1954 4.53623 7.28347 4.85938 7.39427 5.15768C7.50506 5.45597 7.62864 5.69887 7.765 5.88637H7.32182C7.06188 5.50711 6.86159 5.09234 6.72097 4.64205C6.58177 4.19035 6.51216 3.69603 6.51216 3.1591Z" fill="black"/>
<path d="M9.76625 5.06819C9.45943 5.06819 9.19522 4.99574 8.97363 4.85086C8.75204 4.70597 8.58159 4.5064 8.46227 4.25214C8.34295 3.99787 8.28329 3.70739 8.28329 3.38069C8.28329 3.0483 8.34437 2.75498 8.46653 2.50072C8.59011 2.24503 8.76199 2.04546 8.98216 1.90199C9.20375 1.75711 9.46227 1.68466 9.75772 1.68466C9.98784 1.68466 10.1952 1.72728 10.3799 1.81251C10.5645 1.89773 10.7158 2.01705 10.8337 2.17046C10.9516 2.32387 11.0248 2.50285 11.0532 2.70739H10.5503C10.512 2.55824 10.4268 2.42614 10.2947 2.31109C10.164 2.19461 9.98784 2.13637 9.76625 2.13637C9.57022 2.13637 9.39835 2.18751 9.25062 2.28978C9.10431 2.39063 8.98997 2.53339 8.90758 2.71805C8.82662 2.90128 8.78613 3.11648 8.78613 3.36364C8.78613 3.61648 8.82591 3.83665 8.90545 4.02415C8.98642 4.21165 9.10005 4.35725 9.24636 4.46094C9.39409 4.56464 9.56738 4.61648 9.76625 4.61648C9.89693 4.61648 10.0155 4.59376 10.1221 4.5483C10.2286 4.50285 10.3188 4.43751 10.3927 4.35228C10.4665 4.26705 10.5191 4.16478 10.5503 4.04546H11.0532C11.0248 4.23864 10.9545 4.41265 10.8422 4.56748C10.7314 4.72089 10.5844 4.84305 10.4012 4.93395C10.2194 5.02344 10.0077 5.06819 9.76625 5.06819Z" fill="black"/>
<path d="M11.7883 5.00001V1.72728H12.2741V2.23864H12.3167C12.3849 2.06393 12.4949 1.92827 12.6469 1.83168C12.7989 1.73367 12.9814 1.68466 13.1945 1.68466C13.4104 1.68466 13.5901 1.73367 13.7336 1.83168C13.8785 1.92827 13.9914 2.06393 14.0724 2.23864H14.1064C14.1903 2.06961 14.316 1.93538 14.4836 1.83594C14.6512 1.73509 14.8522 1.68466 15.0866 1.68466C15.3792 1.68466 15.6185 1.77628 15.8046 1.95952C15.9907 2.14134 16.0837 2.42472 16.0837 2.80966V5.00001H15.5809V2.80966C15.5809 2.56819 15.5148 2.3956 15.3827 2.29191C15.2506 2.18822 15.0951 2.13637 14.9161 2.13637C14.686 2.13637 14.5077 2.20597 14.3813 2.34518C14.2549 2.48296 14.1917 2.65768 14.1917 2.86932V5.00001H13.6803V2.75853C13.6803 2.57245 13.6199 2.42259 13.4992 2.30895C13.3785 2.1939 13.2229 2.13637 13.0326 2.13637C12.9019 2.13637 12.7797 2.17117 12.6661 2.24077C12.5539 2.31038 12.463 2.40697 12.3934 2.53055C12.3252 2.6527 12.2911 2.79404 12.2911 2.95455V5.00001H11.7883Z" fill="black"/>
<path d="M18.077 3.1591C18.077 3.69603 18.0067 4.19035 17.866 4.64205C17.7268 5.09234 17.5273 5.50711 17.2673 5.88637H16.8241C16.9264 5.74574 17.0216 5.57245 17.1096 5.36648C17.1991 5.16194 17.2773 4.93751 17.344 4.69319C17.4108 4.44745 17.4626 4.1939 17.4996 3.93253C17.5379 3.66975 17.5571 3.41194 17.5571 3.1591C17.5571 2.82103 17.5244 2.47799 17.4591 2.12998C17.3937 1.78197 17.3057 1.45881 17.1949 1.16052C17.0841 0.862221 16.9605 0.619324 16.8241 0.431824H17.2673C17.5273 0.811085 17.7268 1.22657 17.866 1.67827C18.0067 2.12856 18.077 2.62216 18.077 3.1591Z" fill="black"/>
</svg>
