<svg width="320" height="75" viewBox="0 0 320 75" fill="none" xmlns="http://www.w3.org/2000/svg">
<path d="M0.5 14.1509C0.5 6.61173 6.61174 0.5 14.1509 0.5H60.8491C68.3883 0.5 74.5 6.61174 74.5 14.1509V60.8491C74.5 68.3883 68.3883 74.5 60.8491 74.5H14.1509C6.61173 74.5 0.5 68.3883 0.5 60.8491V14.1509Z" fill="#E8D5A7" stroke="black"/>
<path d="M29.7172 45.9906H46.6983M36.1227 15.7727L21.7263 26.9699C20.764 27.7184 20.2828 28.0926 19.9361 28.5613C19.6291 28.9765 19.4003 29.4442 19.2611 29.9414C19.104 30.5028 19.104 31.1124 19.104 32.3315V47.6887C19.104 50.0663 19.104 51.2551 19.5667 52.1632C19.9737 52.962 20.6232 53.6114 21.422 54.0184C22.3301 54.4811 23.5189 54.4811 25.8965 54.4811H50.5191C52.8967 54.4811 54.0855 54.4811 54.9936 54.0184C55.7924 53.6114 56.4418 52.962 56.8488 52.1632C57.3116 51.2551 57.3116 50.0663 57.3116 47.6887V32.3315C57.3116 31.1124 57.3116 30.5028 57.1544 29.9414C57.0152 29.4442 56.7865 28.9765 56.4794 28.5613C56.1328 28.0926 55.6516 27.7184 54.6893 26.9699L40.2929 15.7727C39.5471 15.1927 39.1743 14.9027 38.7625 14.7912C38.3992 14.6928 38.0163 14.6928 37.653 14.7912C37.2413 14.9027 36.8684 15.1927 36.1227 15.7727Z" stroke="black" stroke-width="2" stroke-linecap="round" stroke-linejoin="round"/>
<path d="M123.5 14.1509C123.5 6.61173 129.612 0.5 137.151 0.5H183.849C191.388 0.5 197.5 6.61174 197.5 14.1509V60.8491C197.5 68.3883 191.388 74.5 183.849 74.5H137.151C129.612 74.5 123.5 68.3883 123.5 60.8491V14.1509Z" fill="#E8D5A7" stroke="black"/>
<path d="M172.371 16.5683L172.371 54.1865M153.503 13.8813L153.503 56.8735M131.491 35.3774H188.094M131.491 19.2262L131.491 51.5285C131.491 55.1937 131.491 57.0263 132.375 58.2965C133.151 59.4103 134.372 60.247 135.813 60.6524C137.456 61.1149 139.549 60.7173 143.737 59.9222L180.215 52.9957C183.026 52.4618 184.432 52.1949 185.482 51.5489C186.407 50.9791 187.134 50.2049 187.584 49.3092C188.095 48.2937 188.094 47.0631 188.094 44.602V26.1527C188.094 23.6916 188.095 22.461 187.584 21.4456C187.134 20.5499 186.407 19.7757 185.482 19.2059C184.432 18.5599 183.026 18.2929 180.215 17.759L143.737 10.8325C139.549 10.0374 137.456 9.63987 135.813 10.1023C134.372 10.5077 133.151 11.3444 132.375 12.4582C131.491 13.7284 131.491 15.561 131.491 19.2262Z" stroke="black" stroke-width="2" stroke-linecap="round" stroke-linejoin="round"/>
<path d="M245.5 14.1509C245.5 6.61173 251.612 0.5 259.151 0.5H305.849C313.388 0.5 319.5 6.61174 319.5 14.1509V60.8491C319.5 68.3883 313.388 74.5 305.849 74.5H259.151C251.612 74.5 245.5 68.3883 245.5 60.8491V14.1509Z" fill="#E8D5A7" stroke="black"/>
<path d="M303.373 56.9575L289.929 43.5141M294.41 32.3113C294.41 40.9733 287.388 47.9953 278.726 47.9953C270.064 47.9953 263.042 40.9733 263.042 32.3113C263.042 23.6493 270.064 16.6274 278.726 16.6274C287.388 16.6274 294.41 23.6493 294.41 32.3113Z" stroke="black" stroke-width="2" stroke-linecap="round" stroke-linejoin="round"/>
<path d="M0.5 14.1509C0.5 6.61173 6.61174 0.5 14.1509 0.5H60.8491C68.3883 0.5 74.5 6.61174 74.5 14.1509V60.8491C74.5 68.3883 68.3883 74.5 60.8491 74.5H14.1509C6.61173 74.5 0.5 68.3883 0.5 60.8491V14.1509Z" fill="#A7E8B0" stroke="black"/>
<path d="M29.7172 45.9906H46.6983M36.1227 15.7727L21.7263 26.9699C20.764 27.7184 20.2828 28.0926 19.9361 28.5613C19.6291 28.9765 19.4003 29.4442 19.2611 29.9414C19.104 30.5028 19.104 31.1124 19.104 32.3315V47.6887C19.104 50.0663 19.104 51.2551 19.5667 52.1632C19.9737 52.962 20.6232 53.6114 21.422 54.0184C22.3301 54.4811 23.5189 54.4811 25.8965 54.4811H50.5191C52.8967 54.4811 54.0855 54.4811 54.9936 54.0184C55.7924 53.6114 56.4418 52.962 56.8488 52.1632C57.3116 51.2551 57.3116 50.0663 57.3116 47.6887V32.3315C57.3116 31.1124 57.3116 30.5028 57.1544 29.9414C57.0152 29.4442 56.7865 28.9765 56.4794 28.5613C56.1328 28.0926 55.6516 27.7184 54.6893 26.9699L40.2929 15.7727C39.5471 15.1927 39.1743 14.9027 38.7625 14.7912C38.3992 14.6928 38.0163 14.6928 37.653 14.7912C37.2413 14.9027 36.8684 15.1927 36.1227 15.7727Z" stroke="black" stroke-width="2" stroke-linecap="round" stroke-linejoin="round"/>
<path d="M123.5 14.1509C123.5 6.61173 129.612 0.5 137.151 0.5H183.849C191.388 0.5 197.5 6.61174 197.5 14.1509V60.8491C197.5 68.3883 191.388 74.5 183.849 74.5H137.151C129.612 74.5 123.5 68.3883 123.5 60.8491V14.1509Z" fill="#E8D5A7" stroke="black"/>
<path d="M172.371 16.5683L172.371 54.1865M153.503 13.8813L153.503 56.8735M131.491 35.3774H188.094M131.491 19.2262L131.491 51.5285C131.491 55.1937 131.491 57.0263 132.375 58.2965C133.151 59.4103 134.372 60.247 135.813 60.6524C137.456 61.1149 139.549 60.7173 143.737 59.9222L180.215 52.9957C183.026 52.4618 184.432 52.1949 185.482 51.5489C186.407 50.9791 187.134 50.2049 187.584 49.3092C188.095 48.2937 188.094 47.0631 188.094 44.602V26.1527C188.094 23.6916 188.095 22.461 187.584 21.4456C187.134 20.5499 186.407 19.7757 185.482 19.2059C184.432 18.5599 183.026 18.2929 180.215 17.759L143.737 10.8325C139.549 10.0374 137.456 9.63987 135.813 10.1023C134.372 10.5077 133.151 11.3444 132.375 12.4582C131.491 13.7284 131.491 15.561 131.491 19.2262Z" stroke="black" stroke-width="2" stroke-linecap="round" stroke-linejoin="round"/>
<path d="M245.5 14.1509C245.5 6.61173 251.612 0.5 259.151 0.5H305.849C313.388 0.5 319.5 6.61174 319.5 14.1509V60.8491C319.5 68.3883 313.388 74.5 305.849 74.5H259.151C251.612 74.5 245.5 68.3883 245.5 60.8491V14.1509Z" fill="#E8D5A7" stroke="black"/>
<path d="M303.373 56.9575L289.929 43.5141M294.41 32.3113C294.41 40.9733 287.388 47.9953 278.726 47.9953C270.064 47.9953 263.042 40.9733 263.042 32.3113C263.042 23.6493 270.064 16.6274 278.726 16.6274C287.388 16.6274 294.41 23.6493 294.41 32.3113Z" stroke="black" stroke-width="2" stroke-linecap="round" stroke-linejoin="round"/>
</svg>
