<svg width="55" height="49" viewBox="0 0 55 49" fill="none" xmlns="http://www.w3.org/2000/svg">
<path d="M0 10C0 4.47715 4.47715 0 10 0H45C50.5228 0 55 4.47715 55 10V39C55 44.5228 50.5228 49 45 49H10C4.47715 49 0 44.5228 0 39V10Z" fill="#E8D5A7"/>
<path d="M27 17.6667V30.3333M20.6667 24H33.3333M20.35 38.25H33.65C36.3102 38.25 37.6404 38.25 38.6565 37.7323C39.5502 37.2769 40.2769 36.5502 40.7323 35.6565C41.25 34.6404 41.25 33.3103 41.25 30.65V17.35C41.25 14.6898 41.25 13.3596 40.7323 12.3435C40.2769 11.4498 39.5502 10.7231 38.6565 10.2677C37.6404 9.75 36.3103 9.75 33.65 9.75H20.35C17.6898 9.75 16.3596 9.75 15.3435 10.2677C14.4498 10.7231 13.7231 11.4498 13.2677 12.3435C12.75 13.3596 12.75 14.6898 12.75 17.35V30.65C12.75 33.3102 12.75 34.6404 13.2677 35.6565C13.7231 36.5502 14.4498 37.2769 15.3435 37.7323C16.3596 38.25 17.6898 38.25 20.35 38.25Z" stroke="black" stroke-width="2" stroke-linecap="round" stroke-linejoin="round"/>
</svg>
