<svg width="320" height="75" viewBox="0 0 320 75" fill="none" xmlns="http://www.w3.org/2000/svg">
<path d="M0 14.1509C0 6.33559 6.33559 0 14.1509 0H60.8491C68.6644 0 75 6.33559 75 14.1509V60.8491C75 68.6644 68.6644 75 60.8491 75H14.1509C6.33559 75 0 68.6644 0 60.8491V14.1509Z" fill="#E8D5A7"/>
<path fill-rule="evenodd" clip-rule="evenodd" d="M60.8491 1H14.1509C6.88788 1 1 6.88788 1 14.1509V60.8491C1 68.1121 6.88788 74 14.1509 74H60.8491C68.1121 74 74 68.1121 74 60.8491V14.1509C74 6.88788 68.1121 1 60.8491 1ZM14.1509 0C6.33559 0 0 6.33559 0 14.1509V60.8491C0 68.6644 6.33559 75 14.1509 75H60.8491C68.6644 75 75 68.6644 75 60.8491V14.1509C75 6.33559 68.6644 0 60.8491 0H14.1509Z" fill="black"/>
<path d="M29.7172 45.9906H46.6983M36.1227 15.7727L21.7263 26.9699C20.764 27.7184 20.2828 28.0926 19.9361 28.5613C19.6291 28.9765 19.4003 29.4442 19.2611 29.9414C19.104 30.5028 19.104 31.1124 19.104 32.3315V47.6887C19.104 50.0663 19.104 51.2551 19.5667 52.1632C19.9737 52.962 20.6232 53.6114 21.422 54.0184C22.3301 54.4811 23.5189 54.4811 25.8965 54.4811H50.5191C52.8967 54.4811 54.0855 54.4811 54.9936 54.0184C55.7924 53.6114 56.4418 52.962 56.8488 52.1632C57.3116 51.2551 57.3116 50.0663 57.3116 47.6887V32.3315C57.3116 31.1124 57.3116 30.5028 57.1544 29.9414C57.0152 29.4442 56.7865 28.9765 56.4794 28.5613C56.1328 28.0926 55.6516 27.7184 54.6893 26.9699L40.2929 15.7727C39.5471 15.1927 39.1743 14.9027 38.7625 14.7912C38.3992 14.6928 38.0163 14.6928 37.653 14.7912C37.2413 14.9027 36.8684 15.1927 36.1227 15.7727Z" stroke="black" stroke-width="2" stroke-linecap="round" stroke-linejoin="round"/>
<path d="M123 14.1509C123 6.33559 129.336 0 137.151 0H183.849C191.664 0 198 6.33559 198 14.1509V60.8491C198 68.6644 191.664 75 183.849 75H137.151C129.336 75 123 68.6644 123 60.8491V14.1509Z" fill="#A7E8B0"/>
<path fill-rule="evenodd" clip-rule="evenodd" d="M183.849 1H137.151C129.888 1 124 6.88788 124 14.1509V60.8491C124 68.1121 129.888 74 137.151 74H183.849C191.112 74 197 68.1121 197 60.8491V14.1509C197 6.88788 191.112 1 183.849 1ZM137.151 0C129.336 0 123 6.33559 123 14.1509V60.8491C123 68.6644 129.336 75 137.151 75H183.849C191.664 75 198 68.6644 198 60.8491V14.1509C198 6.33559 191.664 0 183.849 0H137.151Z" fill="black"/>
<path d="M180.215 52.9957C183.026 52.4618 184.432 52.1949 185.482 51.5489C186.407 50.9791 187.134 50.2049 187.584 49.3092C188.095 48.2937 188.094 47.0631 188.094 44.602V26.1527C188.094 23.6916 188.095 22.461 187.584 21.4456C187.134 20.5499 186.407 19.7757 185.482 19.2059C184.432 18.5599 183.026 18.2929 180.215 17.759L143.737 10.8325C139.549 10.0374 137.456 9.63987 135.813 10.1023C134.372 10.5077 133.151 11.3444 132.375 12.4582C131.491 13.7284 131.491 15.561 131.491 19.2262L131.491 51.5285C131.491 55.1937 131.491 57.0263 132.375 58.2965C133.151 59.4103 134.372 60.247 135.813 60.6524C137.456 61.1149 139.549 60.7173 143.737 59.9222L180.215 52.9957Z" fill="#A7E8B0"/>
<path fill-rule="evenodd" clip-rule="evenodd" d="M143.881 9.84208L180.435 16.783C181.812 17.0445 182.893 17.2497 183.758 17.4718C184.638 17.698 185.36 17.9569 186.006 18.3543C187.076 19.0129 187.937 19.921 188.478 20.9965C188.811 21.6596 188.957 22.3596 189.027 23.1714C189.095 23.9565 189.095 24.9154 189.094 26.1083V44.6464C189.095 45.8394 189.095 46.7982 189.027 47.5833C188.957 48.3951 188.811 49.0951 188.478 49.7582C187.937 50.8337 187.076 51.7418 186.006 52.4004C185.36 52.7978 184.638 53.0567 183.758 53.2829C182.893 53.5051 181.812 53.7102 180.435 53.9718L143.881 60.9126C141.823 61.3034 140.222 61.6074 138.932 61.7526C137.628 61.8995 136.545 61.8973 135.542 61.615C133.902 61.1537 132.477 60.1918 131.555 58.8681C130.974 58.0346 130.725 57.0662 130.607 55.913C130.491 54.7866 130.491 53.3697 130.491 51.5849L130.491 35.3783C130.491 35.378 130.491 35.3785 130.491 35.3783C130.491 35.378 130.491 35.3768 130.491 35.3765L130.491 19.1698C130.491 17.385 130.491 15.9681 130.607 14.8417C130.725 13.6885 130.974 12.7201 131.555 11.8866C132.477 10.563 133.902 9.601 135.542 9.13967C136.545 8.85741 137.628 8.85524 138.932 9.0021C140.222 9.14731 141.823 9.45127 143.881 9.84208ZM132.491 36.3774L132.491 51.5285C132.491 53.3823 132.492 54.6963 132.596 55.7083C132.699 56.7052 132.892 57.2882 133.196 57.725C133.826 58.6288 134.841 59.3403 136.083 59.6898C136.724 59.87 137.509 59.9002 138.709 59.7652C139.914 59.6294 141.441 59.3402 143.55 58.9398L152.568 57.2275C152.526 57.1174 152.503 56.9981 152.503 56.8735V36.3774H132.491ZM152.503 34.3774H132.491L132.491 19.2262C132.491 17.3724 132.492 16.0584 132.596 15.0464C132.699 14.0495 132.892 13.4665 133.196 13.0297C133.826 12.1259 134.841 11.4145 136.083 11.0649C136.724 10.8847 137.509 10.8545 138.709 10.9895C139.914 11.1253 141.441 11.4145 143.55 11.8149L152.568 13.5273C152.526 13.6373 152.503 13.7566 152.503 13.8813V34.3774ZM154.503 36.3774V56.8599L171.371 53.657V36.3774H154.503ZM171.371 34.3774H154.503V13.8948L171.371 17.0977V34.3774ZM173.371 36.3774V53.2773L180.028 52.0133C181.446 51.7439 182.464 51.5502 183.26 51.3458C184.048 51.1435 184.553 50.9459 184.957 50.6973C185.739 50.2163 186.331 49.576 186.691 48.8601C186.868 48.5077 186.977 48.0847 187.034 47.4121C187.094 46.7225 187.094 45.8496 187.094 44.602V36.3774H173.371ZM187.094 34.3774H173.371V17.4775L180.028 18.7415C181.446 19.0108 182.464 19.2045 183.26 19.409C184.048 19.6112 184.553 19.8088 184.957 20.0574C185.739 20.5385 186.331 21.1787 186.691 21.8946C186.868 22.247 186.977 22.67 187.034 23.3427C187.094 24.0322 187.094 24.9052 187.094 26.1527V34.3774Z" fill="black"/>
<path d="M245 14.1509C245 6.33559 251.336 0 259.151 0H305.849C313.664 0 320 6.33559 320 14.1509V60.8491C320 68.6644 313.664 75 305.849 75H259.151C251.336 75 245 68.6644 245 60.8491V14.1509Z" fill="#E8D5A7"/>
<path fill-rule="evenodd" clip-rule="evenodd" d="M305.849 1H259.151C251.888 1 246 6.88788 246 14.1509V60.8491C246 68.1121 251.888 74 259.151 74H305.849C313.112 74 319 68.1121 319 60.8491V14.1509C319 6.88788 313.112 1 305.849 1ZM259.151 0C251.336 0 245 6.33559 245 14.1509V60.8491C245 68.6644 251.336 75 259.151 75H305.849C313.664 75 320 68.6644 320 60.8491V14.1509C320 6.33559 313.664 0 305.849 0H259.151Z" fill="black"/>
<path d="M303.373 56.9575L289.929 43.5141M294.41 32.3113C294.41 40.9733 287.388 47.9953 278.726 47.9953C270.064 47.9953 263.042 40.9733 263.042 32.3113C263.042 23.6493 270.064 16.6274 278.726 16.6274C287.388 16.6274 294.41 23.6493 294.41 32.3113Z" stroke="black" stroke-width="2" stroke-linecap="round" stroke-linejoin="round"/>
</svg>
