<svg width="19" height="6" viewBox="0 0 19 6" fill="none" xmlns="http://www.w3.org/2000/svg">
<path d="M0.541992 5.00001V0.636369H1.0704V2.57955H3.39711V0.636369H3.92552V5.00001H3.39711V3.0483H1.0704V5.00001H0.541992Z" fill="black"/>
<path d="M6.78169 3.1591C6.78169 2.62216 6.8513 2.12856 6.9905 1.67827C7.13113 1.22657 7.33141 0.811085 7.59135 0.431824H8.03453C7.93226 0.572449 7.83638 0.745744 7.74689 0.95171C7.65882 1.15626 7.58141 1.3814 7.51465 1.62714C7.44789 1.87145 7.39533 2.1243 7.35698 2.38566C7.32005 2.64702 7.30158 2.90484 7.30158 3.1591C7.30158 3.49716 7.33425 3.8402 7.39959 4.18822C7.46493 4.53623 7.553 4.85938 7.6638 5.15768C7.77459 5.45597 7.89817 5.69887 8.03453 5.88637H7.59135C7.33141 5.50711 7.13113 5.09234 6.9905 4.64205C6.8513 4.19035 6.78169 3.69603 6.78169 3.1591Z" fill="black"/>
<path d="M10.0358 5.06819C9.72896 5.06819 9.46476 4.99574 9.24316 4.85086C9.02157 4.70597 8.85112 4.5064 8.7318 4.25214C8.61248 3.99787 8.55282 3.70739 8.55282 3.38069C8.55282 3.0483 8.6139 2.75498 8.73606 2.50072C8.85964 2.24503 9.03152 2.04546 9.25169 1.90199C9.47328 1.75711 9.7318 1.68466 10.0273 1.68466C10.2574 1.68466 10.4648 1.72728 10.6494 1.81251C10.8341 1.89773 10.9854 2.01705 11.1032 2.17046C11.2211 2.32387 11.2943 2.50285 11.3227 2.70739H10.8199C10.7815 2.55824 10.6963 2.42614 10.5642 2.31109C10.4335 2.19461 10.2574 2.13637 10.0358 2.13637C9.83976 2.13637 9.66788 2.18751 9.52015 2.28978C9.37385 2.39063 9.2595 2.53339 9.17711 2.71805C9.09615 2.90128 9.05566 3.11648 9.05566 3.36364C9.05566 3.61648 9.09544 3.83665 9.17498 4.02415C9.25595 4.21165 9.36958 4.35725 9.51589 4.46094C9.66362 4.56464 9.83691 4.61648 10.0358 4.61648C10.1665 4.61648 10.2851 4.59376 10.3916 4.5483C10.4981 4.50285 10.5883 4.43751 10.6622 4.35228C10.7361 4.26705 10.7886 4.16478 10.8199 4.04546H11.3227C11.2943 4.23864 11.224 4.41265 11.1118 4.56748C11.001 4.72089 10.854 4.84305 10.6707 4.93395C10.4889 5.02344 10.2773 5.06819 10.0358 5.06819Z" fill="black"/>
<path d="M12.0578 5.00001V1.72728H12.5436V2.23864H12.5862C12.6544 2.06393 12.7645 1.92827 12.9165 1.83168C13.0684 1.73367 13.251 1.68466 13.464 1.68466C13.68 1.68466 13.8596 1.73367 14.0031 1.83168C14.148 1.92827 14.2609 2.06393 14.3419 2.23864H14.376C14.4598 2.06961 14.5855 1.93538 14.7531 1.83594C14.9207 1.73509 15.1217 1.68466 15.3561 1.68466C15.6487 1.68466 15.8881 1.77628 16.0741 1.95952C16.2602 2.14134 16.3532 2.42472 16.3532 2.80966V5.00001H15.8504V2.80966C15.8504 2.56819 15.7844 2.3956 15.6523 2.29191C15.5202 2.18822 15.3646 2.13637 15.1856 2.13637C14.9555 2.13637 14.7773 2.20597 14.6508 2.34518C14.5244 2.48296 14.4612 2.65768 14.4612 2.86932V5.00001H13.9498V2.75853C13.9498 2.57245 13.8895 2.42259 13.7687 2.30895C13.648 2.1939 13.4925 2.13637 13.3021 2.13637C13.1714 2.13637 13.0493 2.17117 12.9356 2.24077C12.8234 2.31038 12.7325 2.40697 12.6629 2.53055C12.5947 2.6527 12.5606 2.79404 12.5606 2.95455V5.00001H12.0578Z" fill="black"/>
<path d="M18.3465 3.1591C18.3465 3.69603 18.2762 4.19035 18.1356 4.64205C17.9964 5.09234 17.7968 5.50711 17.5368 5.88637H17.0937C17.1959 5.74574 17.2911 5.57245 17.3792 5.36648C17.4687 5.16194 17.5468 4.93751 17.6135 4.69319C17.6803 4.44745 17.7322 4.1939 17.7691 3.93253C17.8074 3.66975 17.8266 3.41194 17.8266 3.1591C17.8266 2.82103 17.7939 2.47799 17.7286 2.12998C17.6633 1.78197 17.5752 1.45881 17.4644 1.16052C17.3536 0.862221 17.23 0.619324 17.0937 0.431824H17.5368C17.7968 0.811085 17.9964 1.22657 18.1356 1.67827C18.2762 2.12856 18.3465 2.62216 18.3465 3.1591Z" fill="black"/>
</svg>
