<svg width="75" height="75" viewBox="0 0 75 75" fill="none" xmlns="http://www.w3.org/2000/svg">
<path d="M0 14.1509C0 6.33559 6.33559 0 14.1509 0H60.8491C68.6644 0 75 6.33559 75 14.1509V60.8491C75 68.6644 68.6644 75 60.8491 75H14.1509C6.33559 75 0 68.6644 0 60.8491V14.1509Z" fill="#E8D5A7"/>
<path fill-rule="evenodd" clip-rule="evenodd" d="M60.8491 1H14.1509C6.88788 1 1 6.88788 1 14.1509V60.8491C1 68.1121 6.88788 74 14.1509 74H60.8491C68.1121 74 74 68.1121 74 60.8491V14.1509C74 6.88788 68.1121 1 60.8491 1ZM14.1509 0C6.33559 0 0 6.33559 0 14.1509V60.8491C0 68.6644 6.33559 75 14.1509 75H60.8491C68.6644 75 75 68.6644 75 60.8491V14.1509C75 6.33559 68.6644 0 60.8491 0H14.1509Z" fill="black"/>
<path d="M29.7172 45.9906H46.6983M36.1227 15.7727L21.7263 26.9699C20.764 27.7184 20.2828 28.0926 19.9361 28.5613C19.6291 28.9765 19.4003 29.4442 19.2611 29.9414C19.104 30.5028 19.104 31.1124 19.104 32.3315V47.6887C19.104 50.0663 19.104 51.2551 19.5667 52.1632C19.9737 52.962 20.6232 53.6114 21.422 54.0184C22.3301 54.4811 23.5189 54.4811 25.8965 54.4811H50.5191C52.8967 54.4811 54.0855 54.4811 54.9936 54.0184C55.7924 53.6114 56.4418 52.962 56.8488 52.1632C57.3116 51.2551 57.3116 50.0663 57.3116 47.6887V32.3315C57.3116 31.1124 57.3116 30.5028 57.1544 29.9414C57.0152 29.4442 56.7865 28.9765 56.4794 28.5613C56.1328 28.0926 55.6516 27.7184 54.6893 26.9699L40.2929 15.7727C39.5471 15.1927 39.1743 14.9027 38.7625 14.7912C38.3992 14.6928 38.0163 14.6928 37.653 14.7912C37.2413 14.9027 36.8684 15.1927 36.1227 15.7727Z" stroke="black" stroke-width="2" stroke-linecap="round" stroke-linejoin="round"/>
</svg>
