<svg width="39" height="39" viewBox="0 0 39 39" fill="none" xmlns="http://www.w3.org/2000/svg">
<path d="M19.4983 13.1116V25.721M13.1451 19.4163H25.8515M12.8274 33.6018H26.1691C28.8377 33.6018 30.172 33.6018 31.1913 33.0864C32.0879 32.6331 32.8168 31.9097 33.2736 31.02C33.793 30.0085 33.793 28.6844 33.793 26.0362V12.7964C33.793 10.1482 33.793 8.82407 33.2736 7.81258C32.8168 6.92286 32.0879 6.19949 31.1913 5.74615C30.172 5.23077 28.8377 5.23077 26.1691 5.23077H12.8274C10.1588 5.23077 8.82455 5.23077 7.80529 5.74615C6.90872 6.19949 6.17978 6.92286 5.72296 7.81258C5.20361 8.82407 5.20361 10.1482 5.20361 12.7964V26.0362C5.20361 28.6844 5.20361 30.0085 5.72296 31.02C6.17978 31.9097 6.90872 32.6331 7.80529 33.0864C8.82455 33.6018 10.1588 33.6018 12.8274 33.6018Z" stroke="black" stroke-width="2" stroke-linecap="round" stroke-linejoin="round"/>
</svg>
